<svg xmlns="http://www.w3.org/2000/svg" viewBox="0 0 24 24">
  <path fill="#333333" d="M12 2C6.48 2 2 6.59 2 12.25c0 4.53 2.86 8.37 6.84 9.73.5.09.68-.22.68-.49v-1.9c-2.78.62-3.37-1.22-3.37-1.22-.45-1.18-1.11-1.49-1.11-1.49-.91-.64.07-.63.07-.63 1 .07 1.53 1.06 1.53 1.06.9 1.57 2.34 1.12 2.91.85.09-.67.35-1.12.63-1.38-2.22-.26-4.56-1.14-4.56-5.07 0-1.12.39-2.03 1.03-2.75-.1-.26-.45-1.3.1-2.71 0 0 .84-.28 2.75 1.05A9.35 9.35 0 0 1 12 6.97c.85 0 1.7.12 2.5.34 1.91-1.33 2.75-1.05 2.75-1.05.55 1.41.2 2.45.1 2.71.64.72 1.03 1.63 1.03 2.75 0 3.94-2.34 4.81-4.57 5.07.36.32.68.94.68 1.9v2.8c0 .27.18.59.69.49A10.15 10.15 0 0 0 22 12.25C22 6.59 17.52 2 12 2z" />
</svg>
