<svg xmlns="http://www.w3.org/2000/svg" viewBox="0 0 24 24">
  <path fill="#4285F4" d="M21.6 12.23c0-.78-.07-1.53-.2-2.23H12v4.22h5.37c-.23 1.24-.93 2.29-1.98 2.99v2.44h3.2c1.87-1.72 2.95-4.26 2.95-7.42z" />
  <path fill="#34A853" d="M12 22c2.67 0 4.9-.88 6.53-2.39l-3.2-2.44c-.89.6-2.02.95-3.33.95-2.58 0-4.76-1.74-5.54-4.07H3.15v2.52A9.86 9.86 0 0 0 12 22z" />
  <path fill="#FBBC05" d="M6.46 14.05A5.94 5.94 0 0 1 6.15 12c0-.71.11-1.4.31-2.05V7.43H3.15A9.86 9.86 0 0 0 2.1 12c0 1.61.38 3.13 1.05 4.57l3.31-2.52z" />
  <path fill="#EA4335" d="M12 5.88c1.45 0 2.76.5 3.79 1.48l2.81-2.81C16.9 2.96 14.67 2 12 2a9.86 9.86 0 0 0-8.85 5.43l3.31 2.52C7.24 7.62 9.42 5.88 12 5.88z" />
</svg>
